<svg width="66" height="66" viewBox="0 0 66 66" fill="none" xmlns="http://www.w3.org/2000/svg">
<rect x="0.799988" y="0.400024" width="64.8065" height="64.8065" rx="13" fill="#320E33"/>
<path d="M19.4426 23.6148C25.0178 18.018 27.8055 15.2197 31.1581 14.5859C32.5109 14.3301 33.8997 14.3301 35.2526 14.5859C38.6052 15.2197 41.3928 18.018 46.9681 23.6148C49.0673 25.722 50.1169 26.7757 50.7889 28.0519C51.0659 28.5778 51.2933 29.1283 51.4683 29.6964C51.8928 31.0749 51.8928 32.5621 51.8928 35.5365V45.2574C51.8928 48.6977 49.1039 51.4866 45.6637 51.4866C42.2234 51.4866 39.4345 48.6977 39.4345 45.2574V43.1251C39.4345 39.6848 36.6456 36.8959 33.2053 36.8959C29.765 36.8959 26.9762 39.6848 26.9762 43.1251V45.2574C26.9762 48.6977 24.1873 51.4866 20.747 51.4866C17.3067 51.4866 14.5178 48.6977 14.5178 45.2574V35.5365C14.5178 32.5621 14.5178 31.0749 14.9424 29.6964C15.1173 29.1283 15.3448 28.5778 15.6217 28.0519C16.2938 26.7757 17.3434 25.722 19.4426 23.6148Z" fill="white"/>
</svg>
