<svg width="66" height="66" viewBox="0 0 66 66" fill="none" xmlns="http://www.w3.org/2000/svg">
<rect x="0.799988" y="0.858154" width="64.8065" height="64.8065" rx="12.9613" fill="#3A62F0" fill-opacity="0.2"/>
<path d="M18.1458 29.1667C18.1458 26.4911 18.1458 25.1533 18.4976 24.0706C19.2086 21.8824 20.9241 20.1669 23.1123 19.4559C24.1949 19.1042 25.5327 19.1042 28.2083 19.1042H38.43C42.6954 19.1042 44.8281 19.1042 46.2141 19.7156C49.0383 20.9615 50.7516 23.8715 50.4708 26.9454C50.333 28.4541 49.2983 30.319 47.2289 34.0487C46.433 35.483 46.0351 36.2002 45.5292 36.7778C44.5125 37.9384 43.1492 38.741 41.6411 39.067C40.8906 39.2292 40.0704 39.2292 38.43 39.2292H28.2083C25.5327 39.2292 24.1949 39.2292 23.1123 38.8774C20.9241 38.1664 19.2086 36.4509 18.4976 34.2627C18.1458 33.18 18.1458 31.8422 18.1458 29.1667Z" fill="#3A62F0"/>
<path d="M29.1667 46.4167C29.1667 48.5338 27.4504 50.25 25.3333 50.25C23.2162 50.25 21.5 48.5338 21.5 46.4167C21.5 44.2996 23.2162 42.5833 25.3333 42.5833C27.4504 42.5833 29.1667 44.2996 29.1667 46.4167Z" fill="#3A62F0"/>
<path d="M44.5 46.4167C44.5 48.5338 42.7837 50.25 40.6666 50.25C38.5496 50.25 36.8333 48.5338 36.8333 46.4167C36.8333 44.2996 38.5496 42.5833 40.6666 42.5833C42.7837 42.5833 44.5 44.2996 44.5 46.4167Z" fill="#3A62F0"/>
<path d="M19.5833 22.4583V32.0417V20.5417C19.5833 18.4246 17.8671 16.7083 15.75 16.7083V16.7083" stroke="#3A62F0" stroke-width="2.875" stroke-linecap="round" stroke-linejoin="round"/>
</svg>
