<svg width="66" height="66" viewBox="0 0 66 66" fill="none" xmlns="http://www.w3.org/2000/svg">
<rect x="0.799988" y="0.652161" width="64.8065" height="64.8065" rx="12.9613" fill="#FD9F12" fill-opacity="0.2"/>
<path d="M14.5178 33.0496C14.5178 43.3704 22.8845 51.7371 33.2053 51.7371C41.9588 51.7371 49.3066 45.7186 51.3364 37.594C51.6545 36.3208 51.8135 35.6842 51.4763 35.0387C51.3802 34.8547 51.2055 34.6311 51.0503 34.4932C50.5058 34.0096 49.7504 34.0096 48.2396 34.0096H35.697C34.2596 34.0096 33.5409 34.0096 33.0371 33.6435C32.8744 33.5253 32.7313 33.3822 32.613 33.2195C32.247 32.7157 32.247 31.997 32.247 30.5596V18.0149C32.247 16.5042 32.247 15.7489 31.7634 15.2044C31.6255 15.0491 31.4019 14.8745 31.2179 14.7783C30.5725 14.4411 29.9359 14.6001 28.6629 14.918C20.5372 16.9471 14.5178 24.2954 14.5178 33.0496Z" fill="#FD9F12"/>
<path d="M35.122 27.6852V18.3407C35.122 16.7222 35.122 15.913 35.6516 15.3577C35.802 15.2 36.0445 15.0273 36.2427 14.9369C36.9407 14.6182 37.6076 14.8491 38.9412 15.3109C44.5557 17.2553 49.0019 21.7015 50.9463 27.316C51.4082 28.6496 51.6391 29.3164 51.3204 30.0145C51.2299 30.2127 51.0572 30.4552 50.8996 30.6055C50.3442 31.1352 49.535 31.1352 47.9165 31.1352H38.572C37.1346 31.1352 36.4159 31.1352 35.9121 30.7691C35.7494 30.6509 35.6063 30.5078 35.4881 30.3451C35.122 29.8413 35.122 29.1226 35.122 27.6852Z" fill="#FD9F12"/>
</svg>
